<svg width="32" height="32" fill="none" xmlns="http://www.w3.org/2000/svg"><path fill-rule="evenodd" clip-rule="evenodd" d="M16 32a16 16 0 1 0 0-32 16 16 0 0 0 0 32ZM7.11 15.92c0 2.21 1.2 4.24 3.07 5.58a.55.55 0 0 1 .24.59l-.02.1a22.43 22.43 0 0 1-.46 1.69.3.3 0 0 0 .3.3.4.4 0 0 0 .16-.06L12.35 23c.14-.08.3-.13.47-.13.08 0 .19 0 .27.02.95.28 1.93.42 2.91.41 4.91 0 8.89-3.3 8.89-7.38S20.9 8.53 16 8.53s-8.89 3.31-8.89 7.39Zm7.07-2.39c0 .64-.5 1.15-1.14 1.15-.64 0-1.14-.5-1.14-1.15 0-.63.5-1.14 1.14-1.14.63 0 1.14.5 1.14 1.14Zm5.93 0c0 .64-.5 1.15-1.15 1.15-.63 0-1.14-.5-1.14-1.15 0-.63.5-1.14 1.14-1.14.64 0 1.15.5 1.15 1.14Z" fill="#B69D86"/></svg>