<svg width="175" height="174" viewBox="0 0 175 174" fill="none" xmlns="http://www.w3.org/2000/svg">
<circle r="71" transform="matrix(0.965926 -0.258819 0.259563 0.965726 87.0238 86.957)" fill="#FD9F32"/>
<g filter="url(#filter0_d_2_2138)">
<path d="M49.312 108.782L48.0766 104.185L52.9192 102.888L49.6083 90.5693L52.1828 89.8794L46.3409 95.6496L44.9408 90.4402L49.9726 85.4456L53.9877 84.3698L58.5587 101.377L63.0642 100.17L64.2996 104.766L49.312 108.782Z" fill="white"/>
<path d="M74.1861 102.478C71.5298 103.19 69.2257 102.767 67.2738 101.21C65.3368 99.6263 63.8878 97.0471 62.927 93.472C61.9551 89.8561 61.9215 86.9196 62.8263 84.6623C63.7514 82.3996 65.5421 80.9124 68.1984 80.2006C70.8752 79.4834 73.1711 79.8756 75.0861 81.3773C77.0011 82.879 78.4418 85.4276 79.4082 89.023C80.3746 92.6185 80.4061 95.5885 79.5029 97.9329C78.6147 100.251 76.8424 101.767 74.1861 102.478ZM72.9754 97.9737C73.9562 97.7109 74.5388 96.9854 74.7232 95.7972C74.9281 94.6035 74.7148 92.832 74.0834 90.4827C73.4465 88.1129 72.7483 86.4932 71.9888 85.6236C71.2443 84.7281 70.3817 84.4118 69.4009 84.6746C68.4201 84.9374 67.8218 85.6452 67.606 86.798C67.405 87.925 67.6203 89.6631 68.2517 92.0124C68.8887 94.3821 69.5849 96.0352 70.3403 96.9716C71.1163 97.9025 71.9946 98.2365 72.9754 97.9737Z" fill="white"/>
<path d="M92.5639 97.554C89.9076 98.2657 87.6035 97.8429 85.6515 96.2854C83.7145 94.702 82.2656 92.1228 81.3047 88.5477C80.3329 84.9318 80.2993 81.9952 81.204 79.738C82.1292 77.4753 83.9199 75.9881 86.5762 75.2763C89.2529 74.5591 91.5488 74.9513 93.4638 76.453C95.3789 77.9547 96.8196 80.5033 97.7859 84.0987C98.7523 87.6942 98.7839 90.6642 97.8807 93.0086C96.9924 95.3271 95.2202 96.8422 92.5639 97.554ZM91.3532 93.0494C92.334 92.7866 92.9166 92.0611 93.101 90.8729C93.3059 89.6792 93.0926 87.9077 92.4612 85.5584C91.8242 83.1886 91.126 81.5689 90.3666 80.6993C89.6221 79.8038 88.7595 79.4874 87.7787 79.7502C86.7979 80.013 86.1996 80.7209 85.9837 81.8737C85.7828 83.0006 85.9981 84.7388 86.6295 87.0881C87.2664 89.4578 87.9626 91.1109 88.7181 92.0473C89.494 92.9782 90.3724 93.3122 91.3532 93.0494Z" fill="white"/>
<path d="M112.414 91.8737L107.878 93.0892L114.699 68.1022L119.235 66.8867L112.414 91.8737ZM105.99 84.2327C104.152 84.7254 102.559 84.506 101.214 83.5745C99.8625 82.6225 98.9179 81.1455 98.3798 79.1435C97.8362 77.121 97.9188 75.3907 98.6275 73.9525C99.3511 72.4884 100.622 71.5127 102.441 71.0255C104.259 70.5382 105.841 70.7603 107.187 71.6919C108.533 72.6234 109.469 74.0698 109.996 76.0309C110.534 78.033 110.457 79.7837 109.765 81.2832C109.067 82.7623 107.809 83.7454 105.99 84.2327ZM105.101 80.9232C105.571 80.7973 105.863 80.4563 105.976 79.9003C106.104 79.3184 106.004 78.4146 105.674 77.1889C105.345 75.9632 104.984 75.151 104.592 74.7523C104.2 74.3536 103.78 74.2145 103.33 74.3349C102.84 74.4663 102.532 74.7896 102.408 75.3047C102.284 75.8199 102.392 76.7107 102.732 77.9773C103.072 79.2439 103.431 80.0895 103.808 80.5141C104.18 80.9182 104.611 81.0546 105.101 80.9232ZM124.673 88.9505C122.854 89.4377 121.272 89.2156 119.926 88.284C118.575 87.3321 117.631 85.8551 117.093 83.853C116.549 81.8306 116.632 80.1003 117.34 78.6621C118.064 77.198 119.325 76.225 121.123 75.7432C122.962 75.2505 124.544 75.4726 125.869 76.4096C127.215 77.3412 128.151 78.7875 128.678 80.7487C129.216 82.7507 129.139 84.5015 128.447 86.001C127.77 87.4745 126.512 88.4577 124.673 88.9505ZM123.783 85.641C124.274 85.5096 124.575 85.1659 124.689 84.6099C124.797 84.0335 124.686 83.1324 124.357 81.9067C124.027 80.6809 123.666 79.8687 123.275 79.47C122.903 79.0659 122.482 78.9268 122.012 79.0527C121.542 79.1786 121.238 79.5121 121.098 80.0531C120.974 80.5683 121.079 81.4489 121.414 82.6951C121.755 83.9617 122.113 84.8072 122.49 85.2318C122.882 85.6305 123.313 85.7669 123.783 85.641Z" fill="white"/>
<path d="M53.9901 121.236C53.8124 121.581 53.8064 121.991 53.974 122.343C55.7358 125.875 59.2139 128.593 63.4991 129.793C67.6908 130.967 71.9183 130.528 75.1943 128.601C75.5132 128.628 76.006 128.655 76.644 128.674C73.723 130.333 71.0442 132.631 69.7419 135.821C69.6064 136.153 69.6228 136.529 69.7888 136.848C69.9495 137.168 70.2444 137.4 70.5928 137.481C76.3888 138.883 82.3511 137.729 86.5372 134.425C88.922 132.523 90.407 130.102 90.7448 127.62C91.878 127.404 93.0563 127.177 94.2634 126.886C91.6991 129.366 89.507 132.528 89.1211 136.254C89.0803 136.608 89.2017 136.963 89.4508 137.221C89.6931 137.483 90.0377 137.626 90.3931 137.611C96.2799 137.347 101.641 134.599 104.743 130.262C106.488 127.807 107.239 125.098 106.912 122.639C107.929 122.175 108.938 121.686 109.968 121.164C108.283 123.905 107.1 127.061 107.431 130.366C107.466 130.721 107.657 131.043 107.951 131.247C108.242 131.454 108.608 131.524 108.953 131.439C114.639 130.028 119.521 126.094 121.716 121.18C122.986 118.301 123.167 115.368 122.254 112.975C124.995 110.665 127.544 108.137 129.879 105.417C130.296 104.932 130.268 104.206 129.815 103.75C129.795 103.728 129.771 103.71 129.744 103.699C129.499 103.487 129.181 103.382 128.858 103.407C128.537 103.431 128.239 103.584 128.032 103.83C125.825 106.392 123.423 108.779 120.845 110.967C120.789 110.911 120.725 110.865 120.655 110.828C115.153 107.434 107.731 107.452 101.274 110.847C100.984 110.999 100.77 111.263 100.681 111.578C100.578 111.891 100.614 112.233 100.778 112.52C102.468 115.555 106.276 117.701 110.3 118.227C108.81 119.044 107.327 119.782 105.852 120.443C100.859 115.972 93.2106 114.107 86.9858 115.932C86.6782 116.029 86.4216 116.242 86.2703 116.527C86.1109 116.813 86.0773 117.153 86.1785 117.466C87.1284 120.498 89.971 123.164 93.3821 124.61C92.3986 124.832 91.4492 125.02 90.5174 125.191L90.4914 125.095C90.4661 124.996 90.428 124.9 90.3782 124.811C89.6483 123.539 88.7505 122.37 87.7089 121.336C84.1765 117.808 79.0162 115.733 73.3801 115.747C73.0544 115.743 72.7421 115.873 72.5181 116.108C72.2866 116.338 72.1595 116.652 72.1665 116.979C72.2365 120.37 74.5176 123.938 77.7185 126.293C76.6397 126.265 75.8406 126.214 75.4215 126.184C68.2801 119.95 62.6771 119.408 54.8867 120.608C54.5053 120.665 54.1735 120.897 53.9901 121.236Z" fill="white"/>
<path d="M120.043 53.1928C120.221 52.8471 120.227 52.4375 120.059 52.0855C118.298 48.5534 114.819 45.8359 110.534 44.6359C106.343 43.4619 102.115 43.901 98.8391 45.8272C98.5202 45.8008 98.0274 45.7739 97.3894 45.7544C100.31 44.0955 102.989 41.7974 104.292 38.6075C104.427 38.2759 104.411 37.9 104.245 37.581C104.084 37.2608 103.789 37.0288 103.441 36.9479C97.6446 35.5459 91.6822 36.6994 87.4962 40.0033C85.1113 41.9056 83.6263 44.3266 83.2886 46.8089C82.1554 47.0249 80.9771 47.252 79.77 47.5428C82.3343 45.063 84.5264 41.9008 84.9122 38.1751C84.9531 37.8203 84.8317 37.4655 84.5826 37.2079C84.3403 36.9458 83.9957 36.803 83.6403 36.8172C77.7535 37.0815 72.392 39.83 69.2908 44.1665C67.5456 46.6219 66.794 49.331 67.1213 51.7898C66.1039 52.2539 65.0954 52.743 64.0657 53.2646C65.7502 50.5238 66.9335 47.3675 66.6026 44.0625C66.5669 43.7075 66.3768 43.3852 66.0824 43.1818C65.7915 42.9747 65.4254 42.9044 65.0799 42.9893C59.3945 44.4009 54.5119 48.3345 52.3172 53.2484C51.0477 56.1277 50.8667 59.061 51.7798 61.4534C49.0386 63.7638 46.4889 66.2911 44.1543 69.0116C43.7371 69.4968 43.765 70.2227 44.2188 70.6784C44.2381 70.7001 44.2619 70.7183 44.289 70.73C44.5339 70.9418 44.8526 71.0467 45.1749 71.0221C45.4965 70.9974 45.7943 70.8448 46.0017 70.5986C48.2079 68.0363 50.6104 65.6499 53.188 63.4619C53.2441 63.5171 53.3087 63.564 53.3788 63.6003C58.88 66.9945 66.3023 66.977 72.7596 63.5818C73.0493 63.43 73.2635 63.1657 73.3523 62.8508C73.4553 62.538 73.4196 62.1959 73.255 61.9087C71.5655 58.8732 67.7578 56.7276 63.7338 56.2018C65.2236 55.3846 66.7062 54.6463 68.1811 53.9852C73.1747 58.4563 80.8228 60.3218 87.0476 58.4967C87.3552 58.3996 87.6118 58.1865 87.7631 57.902C87.9225 57.6158 87.9561 57.2755 87.8549 56.9626C86.905 53.9308 84.0624 51.2649 80.6513 49.8187C81.6348 49.5967 82.5842 49.4081 83.516 49.2379L83.542 49.3337C83.5673 49.4328 83.6054 49.5286 83.6552 49.6177C84.3851 50.8899 85.2829 52.0587 86.3244 53.0926C89.8569 56.621 95.0172 58.6952 100.653 58.6817C100.979 58.686 101.291 58.5551 101.515 58.3207C101.747 58.0906 101.874 57.7762 101.867 57.4491C101.797 54.0591 99.5158 50.4905 96.3149 48.1356C97.3937 48.1637 98.1928 48.2141 98.6119 48.2443C105.753 54.4788 111.356 55.0206 119.147 53.8204C119.528 53.7633 119.86 53.5312 120.043 53.1928Z" fill="white"/>
</g>
<defs>
<filter id="filter0_d_2_2138" x="33.859" y="27.3624" width="114.315" height="129.704" filterUnits="userSpaceOnUse" color-interpolation-filters="sRGB">
<feFlood flood-opacity="0" result="BackgroundImageFix"/>
<feColorMatrix in="SourceAlpha" type="matrix" values="0 0 0 0 0 0 0 0 0 0 0 0 0 0 0 0 0 0 127 0" result="hardAlpha"/>
<feOffset dx="4" dy="5"/>
<feGaussianBlur stdDeviation="7"/>
<feComposite in2="hardAlpha" operator="out"/>
<feColorMatrix type="matrix" values="0 0 0 0 0.8625 0 0 0 0 0.3128 0 0 0 0 0.00359374 0 0 0 0.3 0"/>
<feBlend mode="normal" in2="BackgroundImageFix" result="effect1_dropShadow_2_2138"/>
<feBlend mode="normal" in="SourceGraphic" in2="effect1_dropShadow_2_2138" result="shape"/>
</filter>
</defs>
</svg>
