<svg width="28" height="28" fill="none" xmlns="http://www.w3.org/2000/svg"><path d="M1.18 1.75a1.18 1.18 0 0 0 0 2.36H3.8l3.09 12.4a2.34 2.34 0 0 0 2.28 1.78H22.7c1.07 0 1.97-.7 2.25-1.74L28 5.3H8.25l.6 2.37h16.1l-2.26 8.27H9.17l-3.1-12.4A2.34 2.34 0 0 0 3.8 1.74H1.18Zm20.04 16.54a3.56 3.56 0 0 0-3.54 3.54c0 1.94 1.6 3.55 3.54 3.55s3.54-1.6 3.54-3.55c0-1.94-1.6-3.54-3.54-3.54Zm-10.6 0a3.56 3.56 0 0 0-3.55 3.54c0 1.94 1.6 3.55 3.54 3.55s3.54-1.6 3.54-3.55c0-1.94-1.6-3.54-3.54-3.54Zm0 2.36c.65 0 1.17.52 1.17 1.18 0 .67-.52 1.18-1.18 1.18-.66 0-1.18-.51-1.18-1.18 0-.66.52-1.18 1.18-1.18Zm10.6 0c.66 0 1.18.52 1.18 1.18 0 .67-.52 1.18-1.18 1.18-.66 0-1.18-.51-1.18-1.18 0-.66.52-1.18 1.18-1.18Z" fill="#A28276"/></svg>