<svg width="32" height="32" fill="none" xmlns="http://www.w3.org/2000/svg"><path d="M16 0a16 16 0 1 0 0 32 16 16 0 0 0 0-32Zm6.15 18.05s1.42 1.4 1.77 2.05l.01.03c.15.24.18.42.11.56-.12.23-.52.34-.65.36h-2.5c-.18 0-.54-.05-.98-.35-.34-.24-.67-.63-1-1-.48-.57-.9-1.06-1.32-1.06a.5.5 0 0 0-.16.03c-.32.1-.73.56-.73 1.77 0 .38-.3.6-.52.6h-1.14c-.39 0-2.42-.13-4.22-2.03-2.2-2.33-4.19-6.99-4.2-7.03-.13-.3.13-.47.41-.47h2.52c.34 0 .45.2.53.39.09.21.42 1.05.96 2 .88 1.54 1.42 2.17 1.85 2.17a.5.5 0 0 0 .23-.06c.56-.31.46-2.32.43-2.74 0-.08 0-.9-.29-1.29-.2-.29-.55-.4-.77-.43.09-.12.2-.22.33-.29.39-.19 1.09-.22 1.78-.22h.38c.75.01.95.06 1.22.13.55.13.56.49.51 1.7-.01.35-.03.74-.03 1.2v.32c-.02.62-.04 1.32.4 1.6.05.04.12.06.19.06.15 0 .6 0 1.84-2.12.38-.68.71-1.4 1-2.13.02-.04.1-.17.18-.22a.44.44 0 0 1 .2-.05h2.97c.33 0 .55.05.59.17.07.2-.01.8-1.37 2.64l-.6.8c-1.23 1.6-1.23 1.69.07 2.91Z" fill="#B69D86"/></svg>