<svg width="32" height="32" fill="none" xmlns="http://www.w3.org/2000/svg"><path fill-rule="evenodd" clip-rule="evenodd" d="M16 32a16 16 0 1 0 0-32 16 16 0 0 0 0 32Zm-3.11-16a3.12 3.12 0 0 1 6.22 0 3.12 3.12 0 0 1-6.22 0Zm12.44-.47v1c0 1.1 0 2.21-.06 3.32-.07 1.5-.4 2.82-1.5 3.92-1.1 1.09-2.42 1.43-3.92 1.5-1.13.07-2.25.06-3.38.06a369.9 369.9 0 0 0-.94 0c-1.13 0-2.25 0-3.38-.06-1.5-.07-2.82-.4-3.92-1.5-1.09-1.1-1.43-2.42-1.5-3.92a58.9 58.9 0 0 1-.06-4.32c0-1.13 0-2.25.06-3.38.07-1.5.4-2.82 1.5-3.92 1.1-1.09 2.42-1.43 3.92-1.5a58.85 58.85 0 0 1 4.32-.06c1.13 0 2.25 0 3.38.06 1.5.07 2.82.4 3.92 1.5 1.09 1.1 1.43 2.42 1.5 3.92.07 1.13.06 2.25.06 3.38ZM11.21 16a4.78 4.78 0 1 0 9.56.01 4.78 4.78 0 0 0-9.56-.01Zm8.65-4.98a1.12 1.12 0 1 0 2.24 0 1.12 1.12 0 0 0-2.24 0Z" fill="#B69D86"/></svg>