<svg width="139" height="149" viewBox="0 0 139 149" fill="none" xmlns="http://www.w3.org/2000/svg">
<g clip-path="url(#clip0_2_2023)">
<path d="M22.763 113.835L126.563 71.9738L116.098 46.0238L111.232 47.9861L107.988 49.2943L104.744 50.6024L101.501 51.9106L98.2569 53.2188L95.0132 54.527L91.7694 55.8351L88.5257 57.1433L85.2819 58.4515L82.0382 59.7597L78.7944 61.0678L75.5507 62.376L72.3069 63.6842L69.0632 64.9924L65.8194 66.3005L62.5757 67.6087L59.3319 68.9169L56.0882 70.2251L52.8444 71.5332L49.6007 72.8414L46.3569 74.1496L43.1132 75.4578L39.8694 76.7659L36.6257 78.0741L33.3819 79.3823L30.1382 80.6904L26.8944 81.9986L23.6507 83.3068L20.407 84.615L12.2976 87.8854L22.763 113.835ZM21.5618 87.4786L24.7954 86.1451L26.267 89.7943L29.5108 88.4861L28.0493 84.8622L31.2931 83.5541L32.7545 87.1779L35.9983 85.8698L34.5368 82.2459L37.7806 80.9377L39.242 84.5616L42.4858 83.2534L41.0141 79.6042L44.2578 78.296L45.7193 81.9199L48.9631 80.6117L47.5016 76.9879L50.7453 75.6797L53.5252 82.5726L56.769 81.2645L53.9993 74.3968L57.2328 73.0633L58.6943 76.6872L61.9381 75.379L60.4766 71.7552L63.7203 70.447L65.192 74.0962L68.4358 72.788L66.9743 69.1642L70.218 67.856L71.6795 71.4799L74.9233 70.1717L73.4516 66.5225L76.6953 65.2143L78.1568 68.8382L81.4005 67.53L79.9391 63.9061L83.1828 62.5979L85.9627 69.4909L89.2064 68.1827L86.4368 61.3151L89.6703 59.9816L91.1318 63.6055L94.3755 62.2973L92.9141 58.6734L96.1578 57.3652L97.6295 61.0144L100.873 59.7063L99.4118 56.0824L102.656 54.7742L104.117 58.3981L107.361 57.0899L105.889 53.4407L109.133 52.1325L110.605 55.7818L113.848 54.4736L112.387 50.8497L114.405 50.0534L122.541 70.2635L24.4732 109.813L16.3196 89.5957L18.3181 88.7868L21.0877 95.6544L24.3315 94.3462L21.5618 87.4786Z" fill="#FD9F32"/>
<path d="M110.605 55.7828L113.849 54.4747L112.387 50.8514L109.144 52.1595L110.605 55.7828Z" fill="#FFF176"/>
<path d="M104.118 58.3998L107.361 57.0918L105.9 53.4685L102.657 54.7765L104.118 58.3998Z" fill="#FFF176"/>
<path d="M97.6326 61.013L100.876 59.705L99.4147 56.0817L96.1713 57.3897L97.6326 61.013Z" fill="#FFF176"/>
<path d="M91.1443 63.6301L94.3877 62.322L92.9265 58.6987L89.6831 60.0068L91.1443 63.6301Z" fill="#FFF176"/>
<path d="M85.9636 69.4917L89.207 68.1837L86.4378 61.317L83.1943 62.6251L85.9636 69.4917Z" fill="#FFF176"/>
<path d="M78.1687 68.8642L81.4121 67.5562L79.9509 63.9329L76.7075 65.2409L78.1687 68.8642Z" fill="#FFF176"/>
<path d="M71.6814 71.4811L74.9248 70.1731L73.4636 66.5498L70.2202 67.8578L71.6814 71.4811Z" fill="#FFF176"/>
<path d="M65.1931 74.0982L68.4365 72.7902L66.9753 69.1669L63.7319 70.4749L65.1931 74.0982Z" fill="#FFF176"/>
<path d="M58.7068 76.7117L61.9502 75.4036L60.489 71.7803L57.2455 73.0884L58.7068 76.7117Z" fill="#FFF176"/>
<path d="M53.5261 82.5735L56.7695 81.2655L54.0003 74.3988L50.7568 75.7068L53.5261 82.5735Z" fill="#FFF176"/>
<path d="M45.7302 81.9459L48.9736 80.6378L47.5124 77.0145L44.269 78.3226L45.7302 81.9459Z" fill="#FFF176"/>
<path d="M39.2429 84.5628L42.4863 83.2548L41.0251 79.6315L37.7817 80.9395L39.2429 84.5628Z" fill="#FFF176"/>
<path d="M32.7546 87.1799L35.998 85.8718L34.5368 82.2485L31.2934 83.5566L32.7546 87.1799Z" fill="#FFF176"/>
<path d="M26.2693 89.7934L29.5127 88.4854L28.0515 84.8621L24.8081 86.1701L26.2693 89.7934Z" fill="#FFF176"/>
<path d="M21.0877 95.6551L24.3311 94.347L21.5618 87.4804L18.3184 88.7884L21.0877 95.6551Z" fill="#FFF176"/>
<path d="M110.608 55.7801L113.852 54.472L111.235 47.9853L107.992 49.2933L110.608 55.7801Z" fill="#FD9F32"/>
<path d="M101.5 51.9107L104.744 50.6025L107.36 57.09L104.117 58.3982L102.655 54.7743L101.5 51.9107Z" fill="#FD9F32"/>
<path d="M95.013 54.527L98.2567 53.2188L99.4116 56.0825L100.873 59.7063L97.6293 61.0145L95.013 54.527Z" fill="#FD9F32"/>
<path d="M91.1453 63.6312L94.3887 62.3232L91.7726 55.8364L88.5292 57.1444L91.1453 63.6312Z" fill="#FD9F32"/>
<path d="M85.9656 69.4927L89.209 68.1847L85.2849 58.4545L82.0415 59.7625L85.9656 69.4927Z" fill="#FD9F32"/>
<path d="M78.1716 68.8616L81.415 67.5536L78.799 61.0668L75.5556 62.3748L78.1716 68.8616Z" fill="#FD9F32"/>
<path d="M69.0628 64.9925L72.3065 63.6843L74.9229 70.1718L71.6791 71.48L70.2176 67.8561L69.0628 64.9925Z" fill="#FD9F32"/>
<path d="M62.5755 67.6088L65.8192 66.3006L66.9741 69.1643L68.4356 72.7881L65.1918 74.0963L62.5755 67.6088Z" fill="#FD9F32"/>
<path d="M58.7078 76.7127L61.9512 75.4047L59.3351 68.9179L56.0917 70.2259L58.7078 76.7127Z" fill="#FD9F32"/>
<path d="M53.5261 82.5744L56.7695 81.2664L52.8454 71.5361L49.602 72.8442L53.5261 82.5744Z" fill="#FD9F32"/>
<path d="M45.7322 81.9467L48.9756 80.6387L46.3595 74.1519L43.1161 75.4599L45.7322 81.9467Z" fill="#FD9F32"/>
<path d="M36.6253 78.0743L39.869 76.7661L42.4854 83.2536L39.2416 84.5618L37.7801 80.9379L36.6253 78.0743Z" fill="#FD9F32"/>
<path d="M30.138 80.6906L33.3817 79.3824L34.5366 82.246L35.9981 85.8699L32.7543 87.1781L30.138 80.6906Z" fill="#FD9F32"/>
<path d="M26.2693 89.7944L29.5127 88.4863L26.8966 81.9995L23.6532 83.3076L26.2693 89.7944Z" fill="#FD9F32"/>
<path d="M21.0896 95.6561L24.333 94.348L20.4089 84.6178L17.1655 85.9259L21.0896 95.6561Z" fill="#FD9F32"/>
</g>
<path d="M31.9286 28.3363C21.7781 36.7058 9.67581 59.2672 18.2158 69.6245C26.7558 79.9819 51.0607 72.22 61.2112 63.8505C71.3618 55.4811 84.6999 32.205 76.16 21.8477C67.62 11.4903 42.0792 19.9669 31.9286 28.3363Z" fill="#F5EFE6" stroke="#B69D86" stroke-width="2"/>
<path d="M68.8222 27.0343C69.2483 26.683 69.8786 26.7436 70.2299 27.1697C70.5813 27.5958 70.5207 28.2261 70.0945 28.5774L68.8222 27.0343ZM60.9316 36.1325C60.5055 36.4839 59.8753 36.4232 59.5239 35.9971C59.1726 35.571 59.2332 34.9408 59.6593 34.5894L60.9316 36.1325ZM70.0945 28.5774L60.9316 36.1325L59.6593 34.5894L68.8222 27.0343L70.0945 28.5774Z" fill="#B69D86"/>
<path d="M55.0761 38.367C55.5022 38.0157 56.1325 38.0763 56.4838 38.5024C56.8352 38.9285 56.7746 39.5588 56.3484 39.9101L55.0761 38.367ZM28.8597 62.5754C28.4336 62.9268 27.8034 62.8662 27.452 62.4401C27.1007 62.0139 27.1613 61.3837 27.5874 61.0323L28.8597 62.5754ZM56.3484 39.9101L28.8597 62.5754L27.5874 61.0323L55.0761 38.367L56.3484 39.9101Z" fill="#B69D86"/>
<defs>
<clipPath id="clip0_2_2023">
<rect x="97.2285" y="148.859" width="105.11" height="105.11" transform="rotate(-156.964 97.2285 148.859)" fill="white"/>
</clipPath>
</defs>
</svg>
